<svg width="20" height="20" viewBox="0 0 20 20" fill="none" xmlns="http://www.w3.org/2000/svg">
<path fill-rule="evenodd" clip-rule="evenodd" d="M2.5 10C2.5 13.7083 5.20833 16.7917 8.75 17.4167L8.79181 17.3832C8.77787 17.3805 8.76394 17.3778 8.75 17.375V12.0833H6.875V10H8.75V8.33333C8.75 6.45833 9.95833 5.41667 11.6667 5.41667C12.2083 5.41667 12.7917 5.5 13.3333 5.58333V7.5H12.375C11.4583 7.5 11.25 7.95833 11.25 8.54167V10H13.25L12.9167 12.0833H11.25V17.375C11.2361 17.3778 11.2221 17.3805 11.2082 17.3832L11.25 17.4167C14.7917 16.7917 17.5 13.7083 17.5 10C17.5 5.875 14.125 2.5 10 2.5C5.875 2.5 2.5 5.875 2.5 10Z" fill="#303030"/>
</svg>
