<svg width="44" height="28" viewBox="0 0 44 28" fill="none" xmlns="http://www.w3.org/2000/svg">
<path d="M8.7175 28C10.12 28 11.4125 27.188 12.0175 25.928L15.9225 17.976C16.3075 17.192 16.5 16.352 16.5 15.484V2.8C16.5 1.26 15.2625 0 13.75 0H2.75C1.2375 0 0 1.26 0 2.8V14C0 15.54 1.2375 16.8 2.75 16.8H8.25L5.4175 22.568C4.18 25.06 5.9675 28 8.7175 28ZM36.2175 28C37.62 28 38.9125 27.188 39.5175 25.928L43.4225 17.976C43.8075 17.192 44 16.352 44 15.484V2.8C44 1.26 42.7625 0 41.25 0H30.25C28.7375 0 27.5 1.26 27.5 2.8V14C27.5 15.54 28.7375 16.8 30.25 16.8H35.75L32.9175 22.568C31.68 25.06 33.4675 28 36.2175 28Z" fill="#F1F1F1"/>
</svg>
