<svg width="20" height="20" viewBox="0 0 20 20" fill="none" xmlns="http://www.w3.org/2000/svg">
<path d="M10.0016 2.72723C8.02654 2.72723 7.77867 2.73587 7.00293 2.77117C6.22871 2.80663 5.70024 2.9292 5.23783 3.10905C4.75951 3.29481 4.35377 3.54329 3.94954 3.94769C3.54501 4.35193 3.29653 4.75769 3.11017 5.23587C2.92987 5.69845 2.80715 6.22708 2.7723 7.00102C2.73761 7.77678 2.72852 8.02481 2.72852 9.99996C2.72852 11.9751 2.7373 12.2222 2.77245 12.998C2.80806 13.7722 2.93063 14.3007 3.11032 14.7631C3.29623 15.2415 3.5447 15.6472 3.94908 16.0515C4.35316 16.456 4.75891 16.7051 5.23692 16.8909C5.69964 17.0707 6.22826 17.1933 7.00233 17.2287C7.77806 17.264 8.02578 17.2727 10.0007 17.2727C11.976 17.2727 12.2231 17.264 12.9988 17.2287C13.773 17.1933 14.3021 17.0707 14.7648 16.8909C15.243 16.7051 15.6481 16.456 16.0522 16.0515C16.4567 15.6472 16.7052 15.2415 16.8916 14.7633C17.0704 14.3007 17.1931 13.7721 17.2294 12.9981C17.2643 12.2224 17.2734 11.9751 17.2734 9.99996C17.2734 8.02481 17.2643 7.77693 17.2294 7.00117C17.1931 6.22693 17.0704 5.69845 16.8916 5.23602C16.7052 4.75769 16.4567 4.35193 16.0522 3.94769C15.6477 3.54314 15.2431 3.29466 14.7644 3.10905C14.3007 2.9292 13.772 2.80663 12.9977 2.77117C12.222 2.73587 11.9751 2.72723 9.99936 2.72723H10.0016ZM9.34922 4.03784C9.54285 4.03754 9.75891 4.03784 10.0016 4.03784C11.9434 4.03784 12.1735 4.04481 12.9403 4.07966C13.6494 4.11208 14.0342 4.23057 14.2906 4.33011C14.63 4.46193 14.8719 4.61951 15.1263 4.87405C15.3809 5.1286 15.5384 5.37102 15.6705 5.71041C15.7701 5.96648 15.8887 6.35132 15.921 7.06041C15.9558 7.82708 15.9634 8.05738 15.9634 9.99829C15.9634 11.9392 15.9558 12.1695 15.921 12.9362C15.8886 13.6453 15.7701 14.0301 15.6705 14.2862C15.5387 14.6256 15.3809 14.8672 15.1263 15.1216C14.8718 15.3762 14.6301 15.5337 14.2906 15.6656C14.0345 15.7656 13.6494 15.8837 12.9403 15.9162C12.1737 15.951 11.9434 15.9586 10.0016 15.9586C8.05972 15.9586 7.82957 15.951 7.06293 15.9162C6.35386 15.8834 5.96902 15.765 5.71252 15.6654C5.37313 15.5336 5.13072 15.376 4.87618 15.1215C4.62164 14.8669 4.46407 14.6251 4.33195 14.2856C4.23241 14.0295 4.11378 13.6447 4.0815 12.9356C4.04666 12.1689 4.03969 11.9386 4.03969 9.99647C4.03969 8.05435 4.04666 7.82526 4.0815 7.0586C4.11393 6.34951 4.23241 5.96466 4.33195 5.70829C4.46377 5.3689 4.62164 5.12648 4.87618 4.87193C5.13072 4.61738 5.37313 4.45981 5.71252 4.32769C5.96887 4.22769 6.35386 4.10951 7.06293 4.07693C7.73382 4.04663 7.99381 4.03754 9.34922 4.03602V4.03784ZM13.8836 5.24541C13.4018 5.24541 13.0109 5.63587 13.0109 6.11784C13.0109 6.59966 13.4018 6.99057 13.8836 6.99057C14.3654 6.99057 14.7563 6.59966 14.7563 6.11784C14.7563 5.63602 14.3654 5.24511 13.8836 5.24511V5.24541ZM10.0016 6.26511C7.93911 6.26511 6.26689 7.93738 6.26689 9.99996C6.26689 12.0625 7.93911 13.734 10.0016 13.734C12.0641 13.734 13.7358 12.0625 13.7358 9.99996C13.7358 7.93738 12.064 6.26511 10.0015 6.26511H10.0016ZM10.0016 7.57572C11.3404 7.57572 12.4258 8.66102 12.4258 9.99996C12.4258 11.3387 11.3404 12.4242 10.0016 12.4242C8.66273 12.4242 7.57746 11.3387 7.57746 9.99996C7.57746 8.66102 8.66273 7.57572 10.0016 7.57572V7.57572Z" fill="#303030"/>
</svg>
