<svg width="48" height="32" viewBox="0 0 48 32" fill="none" xmlns="http://www.w3.org/2000/svg">
<rect width="18.2195" height="7.97101" rx="3.98551" transform="matrix(-1 0 0 1 26.2192 0)" fill="#303030"/>
<rect width="18.2195" height="7.97101" rx="3.98551" transform="matrix(-1 0 0 1 26.2192 0)" fill="url(#paint0_radial_416_20124)"/>
<rect width="10.2484" height="7.97101" rx="3.98551" transform="matrix(-1 0 0 1 39.8843 0)" fill="#303030"/>
<rect width="10.2484" height="7.97101" rx="3.98551" transform="matrix(-1 0 0 1 39.8843 0)" fill="url(#paint1_radial_416_20124)"/>
<g filter="url(#filter0_d_416_20124)">
<rect width="18.2195" height="7.97101" rx="3.98551" transform="matrix(-1 0 0 1 39.8843 11.9565)" fill="url(#paint2_radial_416_20124)"/>
</g>
<g filter="url(#filter1_d_416_20124)">
<rect width="10.2484" height="7.97101" rx="3.98551" transform="matrix(-1 0 0 1 18.2485 11.9565)" fill="url(#paint3_radial_416_20124)"/>
</g>
<rect width="18.2195" height="7.97101" rx="3.98551" transform="matrix(-1 0 0 1 26.2192 23.9131)" fill="#303030"/>
<rect width="18.2195" height="7.97101" rx="3.98551" transform="matrix(-1 0 0 1 26.2192 23.9131)" fill="url(#paint4_radial_416_20124)"/>
<rect width="10.2484" height="7.97101" rx="3.98551" transform="matrix(-1 0 0 1 39.8843 23.9131)" fill="#303030"/>
<rect width="10.2484" height="7.97101" rx="3.98551" transform="matrix(-1 0 0 1 39.8843 23.9131)" fill="url(#paint5_radial_416_20124)"/>
<defs>
<filter id="filter0_d_416_20124" x="13.665" y="3.95654" width="34.2192" height="23.9712" filterUnits="userSpaceOnUse" color-interpolation-filters="sRGB">
<feFlood flood-opacity="0" result="BackgroundImageFix"/>
<feColorMatrix in="SourceAlpha" type="matrix" values="0 0 0 0 0 0 0 0 0 0 0 0 0 0 0 0 0 0 127 0" result="hardAlpha"/>
<feOffset/>
<feGaussianBlur stdDeviation="4"/>
<feComposite in2="hardAlpha" operator="out"/>
<feColorMatrix type="matrix" values="0 0 0 0 0.27451 0 0 0 0 0.65098 0 0 0 0 1 0 0 0 0.15 0"/>
<feBlend mode="normal" in2="BackgroundImageFix" result="effect1_dropShadow_416_20124"/>
<feBlend mode="normal" in="SourceGraphic" in2="effect1_dropShadow_416_20124" result="shape"/>
</filter>
<filter id="filter1_d_416_20124" x="0" y="3.95654" width="26.2485" height="23.9712" filterUnits="userSpaceOnUse" color-interpolation-filters="sRGB">
<feFlood flood-opacity="0" result="BackgroundImageFix"/>
<feColorMatrix in="SourceAlpha" type="matrix" values="0 0 0 0 0 0 0 0 0 0 0 0 0 0 0 0 0 0 127 0" result="hardAlpha"/>
<feOffset/>
<feGaussianBlur stdDeviation="4"/>
<feComposite in2="hardAlpha" operator="out"/>
<feColorMatrix type="matrix" values="0 0 0 0 0.27451 0 0 0 0 0.65098 0 0 0 0 1 0 0 0 0.15 0"/>
<feBlend mode="normal" in2="BackgroundImageFix" result="effect1_dropShadow_416_20124"/>
<feBlend mode="normal" in="SourceGraphic" in2="effect1_dropShadow_416_20124" result="shape"/>
</filter>
<radialGradient id="paint0_radial_416_20124" cx="0" cy="0" r="1" gradientUnits="userSpaceOnUse" gradientTransform="translate(19.8843 -0.956542) rotate(138.991) scale(15.2398)">
<stop stop-color="#66B6FF"/>
<stop offset="1" stop-color="#0082F6"/>
</radialGradient>
<radialGradient id="paint1_radial_416_20124" cx="0" cy="0" r="1" gradientUnits="userSpaceOnUse" gradientTransform="translate(9.24854 1.54346) rotate(132.51) scale(8.13941)">
<stop stop-color="#66B6FF"/>
<stop offset="1" stop-color="#0082F6"/>
</radialGradient>
<radialGradient id="paint2_radial_416_20124" cx="0" cy="0" r="1" gradientUnits="userSpaceOnUse" gradientTransform="translate(19.8843 -0.956542) rotate(138.991) scale(15.2398)">
<stop stop-color="#66B6FF"/>
<stop offset="1" stop-color="#0082F6"/>
</radialGradient>
<radialGradient id="paint3_radial_416_20124" cx="0" cy="0" r="1" gradientUnits="userSpaceOnUse" gradientTransform="translate(9.24854 1.54346) rotate(132.51) scale(8.13941)">
<stop stop-color="#66B6FF"/>
<stop offset="1" stop-color="#0082F6"/>
</radialGradient>
<radialGradient id="paint4_radial_416_20124" cx="0" cy="0" r="1" gradientUnits="userSpaceOnUse" gradientTransform="translate(19.8843 -0.956542) rotate(138.991) scale(15.2398)">
<stop stop-color="#66B6FF"/>
<stop offset="1" stop-color="#0082F6"/>
</radialGradient>
<radialGradient id="paint5_radial_416_20124" cx="0" cy="0" r="1" gradientUnits="userSpaceOnUse" gradientTransform="translate(9.24854 1.54346) rotate(132.51) scale(8.13941)">
<stop stop-color="#66B6FF"/>
<stop offset="1" stop-color="#0082F6"/>
</radialGradient>
</defs>
</svg>
