<svg width="20" height="20" viewBox="0 0 20 20" fill="none" xmlns="http://www.w3.org/2000/svg">
<path fill-rule="evenodd" clip-rule="evenodd" d="M16.475 6.74067C16.4806 6.88641 16.4825 7.03209 16.4825 7.17782C16.4825 11.5963 13.3743 16.6972 7.69048 16.6972C5.94451 16.6972 4.32101 16.1408 2.95312 15.1935C3.19492 15.22 3.44049 15.2399 3.68983 15.2399C5.13747 15.2399 6.47082 14.7032 7.52845 13.8023C6.17626 13.7824 5.03448 12.8086 4.64069 11.4837C4.82974 11.5235 5.02442 11.5434 5.22351 11.5434C5.50425 11.5434 5.77682 11.5037 6.03808 11.4242C4.62309 11.1195 3.55731 9.76812 3.55731 8.14513C3.55731 8.12525 3.55731 8.11859 3.55731 8.10534C3.97433 8.35045 4.45164 8.50273 4.95847 8.5226C4.1282 7.91978 3.58242 6.89302 3.58242 5.73374C3.58242 5.12429 3.7344 4.54794 4.00195 4.05111C5.52559 6.07819 7.80354 7.40972 10.3716 7.54883C10.3189 7.30373 10.2919 7.04544 10.2919 6.78709C10.2919 4.93887 11.6754 3.44171 13.3825 3.44171C14.2711 3.44171 15.0738 3.84586 15.6371 4.49506C16.3424 4.34932 17.0032 4.07111 17.6011 3.68689C17.3693 4.46858 16.8801 5.12426 16.2407 5.53498C16.8662 5.45548 17.4629 5.27676 18.0162 5.01178C17.6011 5.68085 17.0785 6.27033 16.475 6.74067Z" fill="#303030"/>
</svg>
