<svg width="13" height="13" viewBox="0 0 13 13" fill="none" xmlns="http://www.w3.org/2000/svg">
<g clip-path="url(#clip0_449_20464)">
<path d="M1.25 7.25004H9.6275L5.9675 10.91C5.675 11.2025 5.675 11.6825 5.9675 11.975C6.26 12.2675 6.7325 12.2675 7.025 11.975L11.9675 7.03254C12.26 6.74004 12.26 6.26754 11.9675 5.97504L7.0325 1.02504C6.74 0.732539 6.2675 0.732539 5.975 1.02504C5.6825 1.31754 5.6825 1.79004 5.975 2.08254L9.6275 5.75004H1.25C0.8375 5.75004 0.5 6.08754 0.5 6.50004C0.5 6.91254 0.8375 7.25004 1.25 7.25004Z" fill="#4D66F3"/>
</g>
<defs>
<clipPath id="clip0_449_20464">
<rect width="12" height="12" fill="white" transform="translate(0.5 0.5)"/>
</clipPath>
</defs>
</svg>
